<svg width="24" height="24" viewBox="0 0 24 24" fill="none" xmlns="http://www.w3.org/2000/svg">
    <path d="M7.58083 9.01501L4.26278 12.3329C1.49329 15.1024 0.637019 19.1028 1.82776 21.8589C4.50361 23.4109 8.75822 22.6617 11.6481 19.7718L14.8725 16.5474C15.1936 16.2263 15.2204 15.7045 14.9394 15.3433L13.2001 13.1357C13.1867 13.1089 13.1466 13.1089 13.1199 13.1223C11.9559 14.1391 10.725 15.0891 9.45394 15.9587L8.99904 16.2664C8.53077 16.5875 7.92869 16.534 7.52731 16.1326C7.12594 15.7313 7.07242 15.1024 7.39352 14.6342L7.70124 14.1926C8.57091 12.9216 9.52083 11.6909 10.5377 10.5269C10.5644 10.5001 10.551 10.4734 10.5243 10.4466L8.31669 8.70729L8.37022 8.74743C8.08924 8.70729 7.7949 8.80095 7.58083 9.01501Z"
          fill="url(#paint0_linear_6710_447)"/>
    <path d="M1.80085 21.8459C1.81423 21.8459 1.81423 21.8592 1.82761 21.8592C0.636853 19.1031 1.49312 15.1161 4.26263 12.3332L7.58066 9.01516C7.79473 8.8011 8.0757 8.72082 8.35661 8.74758L8.30314 8.70744C7.9419 8.41315 7.42011 8.43991 7.09901 8.77434L3.87463 11.9987C0.984713 14.902 0.235489 19.17 1.80085 21.8459Z"
          fill="#5BACF3"/>
    <path d="M20.9995 6.38548C21.0279 6.41397 21.0849 6.42822 21.1277 6.41397C21.2701 6.35699 21.4268 6.31425 21.5693 6.25726L22.4384 5.92959C22.481 5.91534 22.4954 5.85836 22.4668 5.81562C21.0565 4.20578 19.5321 2.6814 17.9222 1.27101C17.8795 1.24251 17.8368 1.25676 17.8082 1.29949L17.4806 2.16853C17.4235 2.31099 17.3666 2.45345 17.3238 2.61017C17.3096 2.6529 17.3238 2.69565 17.3524 2.73839C18.6204 3.87811 19.8455 5.1033 20.9995 6.38548Z"
          fill="#EA9C60"/>
    <path d="M8.20604 14.3938C8.40496 14.139 8.58855 13.8844 8.78744 13.6296C9.16992 13.1343 9.56771 12.6391 10.0267 12.158C11.0518 10.9551 10.7798 11.1881 11.958 10.0986L14.6304 6.95736C14.6764 6.90075 14.7375 6.84416 14.7987 6.78757V6.78756C14.86 6.73095 14.9212 6.67434 14.967 6.6036L14.9823 6.57529L15.0589 6.49039C15.1506 6.37719 15.2271 6.24983 15.3037 6.12248C15.3801 5.99512 15.4413 5.85362 15.5026 5.72626C15.5637 5.58476 15.6096 5.45741 15.6402 5.31591V5.31587C15.6709 5.17438 15.7015 5.03289 15.7168 4.89139C15.7321 4.70743 15.7627 4.52347 15.7932 4.35366C15.8085 4.29707 15.8085 4.22631 15.8238 4.16972C15.8391 4.05651 15.8544 3.94331 15.8851 3.83011C15.9004 3.74523 15.9157 3.6745 15.931 3.60377V3.6037C15.9463 3.50464 15.9616 3.40559 15.9921 3.30654C16.0074 3.22163 16.038 3.15089 16.0533 3.06598C16.084 2.96693 16.0993 2.88202 16.1299 2.78297C16.1605 2.71221 16.1758 2.62732 16.2063 2.54241C16.2216 2.44336 16.2522 2.35846 16.2829 2.27355C16.2982 2.18866 16.3288 2.10375 16.3594 2.01884L16.4511 1.76413L16.543 1.50942C16.5736 1.42452 16.6042 1.35378 16.6347 1.26887C16.6619 1.19367 16.7009 1.11847 16.7308 1.04327C16.7344 1.0289 16.7382 1.01447 16.7419 1V1.01415C16.7384 1.02386 16.7347 1.03356 16.7308 1.04327C15.9183 4.23544 16.2041 5.24921 15.7168 6.15077C15.1812 7.14132 16.4052 7.83921 15.8851 8.32032L8.05965 15.4968C7.91465 15.4773 7.74091 15.2295 8.20604 14.3938Z"
          fill="#C68C57"/>
    <path d="M15.3737 8.37833L8.04248 15.4902C8.29298 15.7173 8.68268 15.7441 8.97482 15.5435L9.43413 15.2362C11.4381 13.9263 11.8876 13.8161 13.6133 12.1587L16.4731 9.31391C16.5844 9.20701 16.6957 9.1135 16.821 9.01984L16.9324 8.9397C17.4055 8.61891 17.9344 8.43179 18.491 8.36496C19.9662 8.20456 21.3996 7.83032 22.7634 7.25558C22.9026 7.2021 22.9861 7.06845 23 6.92141C23 6.82785 22.9582 6.74766 22.9026 6.68082C22.8051 6.5739 22.6521 6.5338 22.5269 6.58726L21.9841 6.78776C20.8429 7.21547 19.6461 7.50952 18.4214 7.64319C17.9622 7.69665 17.5168 7.81695 17.0993 8.00407C16.8071 8.13774 16.4731 8.08426 16.2366 7.87041L15.8469 7.49615C15.6242 7.28231 15.5686 6.94814 15.7077 6.66745C15.9025 6.26648 16.0417 5.83876 16.0835 5.39768C16.2226 4.22145 16.5288 3.07197 16.9741 1.97595L17.1829 1.45467C17.2385 1.32101 17.1968 1.17398 17.0854 1.09379C17.0159 1.04033 16.9185 1.00023 16.8349 1.00023C16.6818 1.00023 16.5426 1.09379 16.4871 1.22746C16.4174 1.37448 16.3618 1.50814 16.3061 1.65516C15.5546 4.70264 15.8191 5.665 15.3737 6.52043C14.8727 7.44269 15.8469 7.91051 15.3737 8.37833Z"
          fill="#EA9C60"/>
    <defs>
        <linearGradient id="paint0_linear_6710_447" x1="8.21901" y1="22.6503" x2="8.21901" y2="8.70729"
                        gradientUnits="userSpaceOnUse">
            <stop/>
            <stop offset="1"/>
        </linearGradient>
    </defs>
</svg>
