<svg width="36" height="36" viewBox="0 0 36 36" fill="none" xmlns="http://www.w3.org/2000/svg">
<path fill-rule="evenodd" clip-rule="evenodd" d="M33 18C33 9.71573 26.2843 3 18 3V3C9.71573 3 3 9.71573 3 18V18C3 26.2843 9.71573 33 18 33V33C26.2843 33 33 26.2843 33 18V18ZM18.0086 28.451C12.2414 28.451 7.56616 23.7758 7.56616 18.0086C7.56616 12.2414 12.2414 7.56617 18.0086 7.56617C23.7758 7.56617 28.451 12.2414 28.451 18.0086C28.451 23.7758 23.7758 28.451 18.0086 28.451ZM14.6438 15.3399C14.6438 14.9554 14.9555 14.6438 15.3399 14.6438H20.6772C21.0617 14.6438 21.3733 14.9554 21.3733 15.3399V20.6772C21.3733 21.0617 21.0617 21.3734 20.6772 21.3734H15.3399C14.9555 21.3734 14.6438 21.0617 14.6438 20.6772V15.3399Z" fill="url(#paint0_linear_102_38)"/>
<defs>
<linearGradient id="paint0_linear_102_38" x1="18" y1="3" x2="18" y2="33" gradientUnits="userSpaceOnUse">
<stop stop-color="#2E66F8"/>
<stop offset="1" stop-color="#124ADB"/>
</linearGradient>
</defs>
</svg>
