<?xml version="1.0" encoding="UTF-8"?>
<svg width="752pt" height="752pt" version="1.1" viewBox="0 0 752 752" xmlns="http://www.w3.org/2000/svg">
 <path d="m541.75 200.78h-331.5c-23.5 0-42.621 19.117-42.621 42.621v132.6c0 23.504 19.125 42.621 42.621 42.621h42.621v118.39c0 13.055 10.621 23.68 23.68 23.68h198.9c13.055 0 23.68-10.621 23.68-23.68v-118.39h42.621c23.5 0 42.621-19.117 42.621-42.621l0.003906-132.61c0-23.504-19.125-42.621-42.625-42.621zm-42.621 94.715h9.4727v28.414h-9.4727zm-18.945 184.7c0 2.5664-2.168 4.7344-4.7344 4.7344l-198.9 0.003906c-2.5664 0-4.7344-2.168-4.7344-4.7344l-0.003906-184.7h208.38zm-208.38 23.203c1.5312 0.3125 3.1172 0.47656 4.7383 0.47656h198.9c1.6211 0 3.207-0.16406 4.7344-0.47656v5.2148c0 2.5664-2.168 4.7344-4.7344 4.7344h-198.9c-2.5664 0-4.7344-2.168-4.7344-4.7344zm-18.941-179.48h-9.4727v-28.414h9.4727zm222.58 217.85h-198.9c-2.5664 0-4.7344-2.168-4.7344-4.7344v-5.2148c1.5273 0.3125 3.1133 0.47656 4.7344 0.47656h198.9c1.6211 0 3.207-0.16406 4.7344-0.47656v5.2148c0 2.5664-2.168 4.7344-4.7344 4.7344zm89.98-165.75c0 13.055-10.621 23.68-23.68 23.68h-42.621v-56.828h28.414v-66.301h-303.09v66.301h28.414v56.828h-42.621c-13.055 0-23.68-10.621-23.68-23.68v-132.6c0-13.055 10.621-23.68 23.68-23.68h331.51c13.055 0 23.68 10.621 23.68 23.68zm-189.43 93.902-63.523-63.527 13.395-13.395 40.66 40.664v-119.21h18.941v119.21l40.66-40.66 13.395 13.395z"/>
</svg>
