<?xml version="1.0" encoding="UTF-8"?>
<svg width="752pt" height="752pt" version="1.1" viewBox="0 0 752 752" xmlns="http://www.w3.org/2000/svg">
 <path d="m574.82 325.46c-0.21484-1.6445-1-3.1641-2.2188-4.2891l-110.7-104.19c-2.1406-2.0469-5.3281-2.5547-7.9961-1.2695-2.668 1.2852-4.2578 4.0898-3.9922 7.0391l4.1445 55.496-77.992-0.14844v0.003906c-1.9062-0.03125-3.7422 0.70312-5.0977 2.0391-1.3594 1.3359-2.1211 3.1602-2.1211 5.0664 0 1.9023 0.76172 3.7266 2.1211 5.0625 1.3555 1.3359 3.1914 2.0703 5.0977 2.0391l85.543 0.14844h-0.003907c1.9648 0.003906 3.8398-0.80859 5.1875-2.2383 1.3438-1.4297 2.0391-3.3516 1.918-5.3125l-3.2539-45.137 92.348 86.871-86.871 91.906 0.73828-39.219h-0.003907c0.042969-1.9336-0.71094-3.8047-2.0781-5.1719-1.3711-1.3711-3.2383-2.1211-5.1719-2.0781l-167.23 1.9219-4.1445-56.387c-0.16406-2.8359-2.0039-5.3047-4.6758-6.2695-2.6758-0.96484-5.668-0.24609-7.6055 1.832l-101.67 107.74c-1.3008 1.3711-2 3.207-1.9453 5.0938 0.054687 1.8906 0.85938 3.6758 2.2383 4.9727l110.7 104.19c2.1133 1.8906 5.1484 2.3438 7.7227 1.1562 2.5742-1.1914 4.1914-3.8008 4.1172-6.6328l-1.4805-53.277 81.102-2.5156c1.8906-0.035156 3.6836-0.82031 4.9922-2.1797 1.3086-1.3594 2.0234-3.1836 1.9844-5.0742-0.039063-1.8867-0.82812-3.6797-2.1914-4.9844-1.3633-1.3047-3.1914-2.0156-5.0781-1.9688l-88.352 2.6641c-3.8633 0.16016-6.8906 3.3828-6.8086 7.25l1.332 43.66-93.234-87.762 85.836-90.867 3.4023 47.211v-0.003907c0.3125 3.75 3.4922 6.6016 7.2539 6.5117l166.64-1.9258-1.0352 50.316v0.003906c-0.070313 2.9453 1.6836 5.625 4.4062 6.7422 2.7266 1.1172 5.8594 0.4375 7.875-1.7109l104.34-110.55c1.4727-1.5391 2.1797-3.6562 1.9219-5.7734z"/>
</svg>
