<?xml version="1.0" encoding="UTF-8"?>
<svg width="752pt" height="752pt" version="1.1" viewBox="0 0 752 752" xmlns="http://www.w3.org/2000/svg">
 <g>
  <path d="m406.26 176.05c-38.809 0-74.984 11.184-105.24 29.598-3.2891 1.9727-5.2617 5.2617-5.2617 8.5508l-3.9453 42.098c0 1.9727 1.3164 3.9453 3.9453 3.9453h3.2891c11.184 0 20.391 6.5781 24.336 16.445 3.9453 9.8672 1.3164 20.391-6.5781 27.625l-73.668 67.746c-4.6055 4.6055-11.184 6.5781-17.758 6.5781-3.2891 0-5.918-0.65625-9.207-1.3164-1.9727-0.65625-3.9453-2.6328-6.5781-3.9453-1.3164-1.3164-3.2891 0-3.2891 1.9727v0.65625c0 115.11 96.688 207.19 213.11 199.96 99.973-6.5781 180.22-86.824 186.8-187.46 7.2344-115.77-84.852-212.45-199.96-212.45zm48.672 278.88c-8.5508 8.5508-20.391 13.812-34.859 15.129-0.65625 0-1.9727 0.65625-1.9727 1.9727v21.047c0 1.3164-0.65625 1.9727-1.9727 1.9727h-16.445c-1.3164 0-1.9727-0.65625-1.9727-1.9727v-21.047c0-0.65625-0.65625-1.9727-1.9727-1.9727-15.129-1.9727-26.969-7.2344-36.836-16.445-9.207-8.5508-13.812-20.391-14.469-35.52v-5.2617c0-0.65625 0.65625-1.9727 1.9727-1.9727h32.23c0.65625 0 1.9727 0.65625 1.9727 1.9727 0 10.523 2.6328 17.758 7.8945 22.363 5.2617 4.6055 11.84 7.2344 19.734 7.2344s13.156-1.9727 17.758-5.918c3.9453-3.9453 5.918-9.207 5.918-16.445 0-6.5781-1.9727-12.496-5.918-16.445-3.9453-4.6055-10.523-8.5508-19.734-11.84-18.418-6.5781-32.23-14.469-41.438-23.02-9.207-8.5508-13.156-20.391-13.156-35.52 0-13.812 4.6055-25.652 13.812-34.859 8.5508-8.5508 20.391-13.812 34.203-15.785 1.3164 0 1.9727-1.3164 1.9727-1.9727v-23.02c0-1.3164 0.65625-1.9727 1.9727-1.9727h15.785c1.3164 0 1.9727 0.65625 1.9727 1.9727v23.68c0 1.3164 0.65625 1.9727 1.9727 1.9727 13.812 2.6328 24.996 8.5508 32.887 18.418 7.8945 9.207 11.84 21.707 12.496 36.176v0.65625c0 1.9727-1.3164 3.2891-3.2891 3.2891h-30.258c-1.3164 0-2.6328-1.3164-2.6328-2.6328-0.65625-8.5508-2.6328-15.129-5.918-20.391-3.9453-5.2617-9.8672-7.8945-16.445-7.8945-7.2344 0-12.496 1.9727-16.445 5.918-3.2891 3.9453-5.2617 9.8672-5.2617 16.445 0 6.5781 1.9727 11.84 5.918 15.785 3.9453 3.9453 10.523 7.8945 20.391 11.84 18.418 7.2344 32.23 15.129 41.438 23.68s13.156 19.734 13.156 34.859c-1.3047 15.137-5.9102 26.973-14.461 35.523z"/>
  <path d="m147.11 289.84 73.668 67.75c2.6328 1.9727 6.5781 1.9727 9.207 0l73.668-67.75c3.9453-3.9453 1.3164-9.8672-4.6055-9.8672h-22.363c-3.9453 0-6.5781-2.6328-6.5781-6.5781l9.207-91.426c0.65625-3.2891-2.6328-6.5781-6.5781-6.5781h-95.371c-3.9453 0-6.5781 2.6328-6.5781 6.5781l9.207 91.426c0.65625 3.2891-2.6328 6.5781-6.5781 6.5781h-21.703c-5.2617 0-8.5508 6.5781-4.6016 9.8672z"/>
 </g>
</svg>
