<svg width="89" height="111" viewBox="0 0 89 111" fill="none" xmlns="http://www.w3.org/2000/svg">
    <path d="M55.3825 11.456C54.4289 11.456 53.5664 10.8019 53.3413 9.83333L51.6759 2.68333C51.4132 1.55472 52.1149 0.427377 53.2429 0.164584C54.3715 -0.0982088 55.499 0.603461 55.7618 1.73157L57.4271 8.8822C57.6898 10.0108 56.9886 11.1382 55.8601 11.4009C55.7035 11.4373 55.5432 11.4558 55.3825 11.456ZM78.7304 29.896C78.5923 29.896 78.4527 29.8828 78.3125 29.8541L71.116 28.4009C69.9807 28.1717 69.246 27.0652 69.4749 25.9295C69.7047 24.7937 70.8111 24.0594 71.9467 24.2886L79.1434 25.7417C80.2785 25.9708 81.0134 27.0779 80.7843 28.2132C80.5827 29.209 79.7082 29.896 78.7304 29.896ZM67.2589 15.4749C66.6548 15.4749 66.0553 15.2156 65.6404 14.7137C64.9029 13.8203 65.0288 12.4978 65.9216 11.7602L72.0927 6.66192C72.9859 5.92368 74.3078 6.04975 75.046 6.94299C75.7842 7.83585 75.6576 9.15807 74.7649 9.89643L68.5938 14.9946C68.2185 15.3054 67.7463 15.4753 67.2589 15.4749ZM87.5219 108.139H38.0479L72.7267 95.5689C74.875 94.7905 76.5915 93.2218 77.5605 91.152C78.5291 89.082 78.6333 86.7588 77.8548 84.6102L75.6065 78.4086C75.3305 77.6462 74.488 77.252 73.7259 77.5286C72.9635 77.8046 72.5694 78.6471 72.8459 79.4092L75.0935 85.6107C75.6047 87.0219 75.5364 88.5474 74.9004 89.9073C74.2643 91.2665 73.1367 92.2968 71.7255 92.8081L32.6996 106.954C31.2877 107.465 29.7622 107.397 28.4029 106.76C27.0436 106.124 26.0133 104.997 25.502 103.586L3.93877 44.094C2.88316 41.1817 4.39377 37.9527 7.30684 36.8971L46.333 22.7509C47.7442 22.2397 49.2697 22.3086 50.6295 22.9447C51.9888 23.5807 53.0191 24.7083 53.53 26.1172L62.338 50.5036C62.6135 51.2666 63.4548 51.6615 64.2182 51.386C64.9805 51.1105 65.3752 50.269 65.0997 49.5065L56.2909 25.1182C55.5123 22.9699 53.9438 21.2534 51.874 20.2844C49.8039 19.3158 47.4806 19.2116 45.3323 19.9901L6.30569 34.1357C1.87032 35.7436 -0.429812 40.6597 1.17754 45.0948L22.7409 104.586C23.7898 107.48 26.2462 109.463 29.059 110.047C29.2266 110.157 29.4225 110.215 29.6227 110.214H30.3581C30.5028 110.222 30.6474 110.227 30.7932 110.227C30.9384 110.227 31.0836 110.222 31.2294 110.214H87.5222C88.0958 110.214 88.5602 109.75 88.5602 109.176C88.5602 108.603 88.0954 108.139 87.5219 108.139ZM77.3346 45.3143L75.0539 44.0761C74.143 43.5827 72.8388 44.2253 72.1398 45.5129L53.1571 80.5007C53.0726 80.6565 53.0289 80.8283 53.0346 80.9861L53.1588 84.8571C53.0997 84.8609 53.0406 84.873 52.9827 84.8952L47.086 87.0927C46.9296 87.1509 46.8027 87.2689 46.7333 87.4207C46.6639 87.5725 46.6577 87.7457 46.7159 87.902C46.7742 88.0584 46.8922 88.1853 47.044 88.2547C47.1958 88.3241 47.3689 88.3303 47.5253 88.272L53.2009 86.1568L53.2024 86.202C53.2164 86.6288 53.5673 86.8192 53.9323 86.5978L58.3962 83.8951C58.5314 83.8133 58.6519 83.6836 58.7364 83.5278L77.719 48.5395C78.4175 47.2528 78.2456 45.8083 77.3346 45.3143ZM34.8992 91.6357L30.5716 93.2484C30.4942 93.2772 30.4232 93.321 30.3627 93.3773C30.3022 93.4336 30.2534 93.5012 30.219 93.5764C30.1847 93.6516 30.1655 93.7327 30.1625 93.8153C30.1596 93.8979 30.1729 93.9803 30.2018 94.0577C30.2601 94.2141 30.3781 94.3409 30.5299 94.4102C30.6817 94.4796 30.8548 94.4859 31.0111 94.4276L35.3386 92.8148C35.416 92.786 35.4871 92.7422 35.5476 92.6859C35.6081 92.6296 35.6569 92.562 35.6913 92.4868C35.7257 92.4117 35.7449 92.3305 35.7479 92.2479C35.7508 92.1653 35.7375 92.0829 35.7087 92.0055C35.6799 91.928 35.6361 91.8569 35.5798 91.7963C35.5235 91.7358 35.4558 91.6869 35.3806 91.6526C35.3054 91.6182 35.2242 91.599 35.1415 91.5961C35.0589 91.5932 34.9766 91.6067 34.8992 91.6357ZM43.9408 88.2648L38.0441 90.4629C37.9667 90.4917 37.8956 90.5355 37.8351 90.5918C37.7746 90.6481 37.7258 90.7157 37.6914 90.7909C37.6571 90.8661 37.6379 90.9472 37.6349 91.0298C37.6319 91.1124 37.6453 91.1948 37.6742 91.2722C37.7324 91.4286 37.8504 91.5554 38.0022 91.6248C38.154 91.6941 38.3271 91.7004 38.4835 91.6422L44.3802 89.4443C44.4577 89.4155 44.5288 89.3717 44.5893 89.3154C44.6499 89.2591 44.6987 89.1915 44.7331 89.1163C44.7674 89.0411 44.7866 88.9598 44.7896 88.8772C44.7925 88.7946 44.7791 88.7122 44.7501 88.6348C44.7213 88.5573 44.6775 88.4862 44.6213 88.4257C44.565 88.3652 44.4973 88.3163 44.4221 88.2819C44.3469 88.2476 44.2657 88.2284 44.1831 88.2254C44.1005 88.2225 44.0183 88.2359 43.9408 88.2648ZM26.5847 78.538C26.4562 78.5381 26.3308 78.4989 26.2253 78.4256C26.1198 78.3524 26.0392 78.2486 25.9943 78.1283C25.9362 77.9719 25.9425 77.7988 26.0118 77.6471C26.0812 77.4953 26.2079 77.3773 26.3642 77.3189L30.0646 75.9397C30.2204 75.8839 30.3919 75.8918 30.542 75.9615C30.692 76.0313 30.8086 76.1573 30.8664 76.3124C30.9242 76.4675 30.9186 76.6391 30.8508 76.79C30.783 76.941 30.6584 77.0592 30.5041 77.119L26.8038 78.4982C26.7337 78.5246 26.6595 78.538 26.5847 78.538ZM33.4295 75.9865C33.1743 75.9865 32.9342 75.8296 32.8398 75.5762C32.8109 75.4988 32.7976 75.4164 32.8005 75.3339C32.8035 75.2513 32.8227 75.1701 32.857 75.0949C32.8914 75.0197 32.9402 74.9521 33.0007 74.8958C33.0612 74.8395 33.1322 74.7956 33.2096 74.7668L39.1063 72.5687C39.1837 72.5398 39.2661 72.5265 39.3487 72.5295C39.4312 72.5325 39.5124 72.5517 39.5876 72.586C39.6627 72.6203 39.7304 72.6692 39.7867 72.7296C39.843 72.7901 39.8868 72.8611 39.9156 72.9385C39.9446 73.016 39.958 73.0984 39.9551 73.181C39.9521 73.2636 39.933 73.3448 39.8986 73.42C39.8643 73.4952 39.8154 73.5629 39.7549 73.6192C39.6944 73.6755 39.6233 73.7193 39.5458 73.7481L33.6491 75.9462C33.5789 75.9727 33.5045 75.9864 33.4295 75.9865ZM42.471 72.6165C42.3427 72.6163 42.2175 72.577 42.1121 72.5038C42.0068 72.4306 41.9263 72.327 41.8814 72.2068C41.8525 72.1293 41.8391 72.047 41.842 71.9644C41.8449 71.8818 41.8641 71.8006 41.8985 71.7254C41.9328 71.6502 41.9817 71.5825 42.0422 71.5262C42.1027 71.4699 42.1737 71.4261 42.2512 71.3973L48.1479 69.1986C48.2253 69.1698 48.3077 69.1564 48.3903 69.1594C48.4729 69.1624 48.5541 69.1816 48.6292 69.216C48.7044 69.2503 48.772 69.2991 48.8283 69.3596C48.8846 69.4201 48.9284 69.4911 48.9572 69.5686C48.9862 69.646 48.9996 69.7284 48.9966 69.811C48.9937 69.8936 48.9745 69.9748 48.9402 70.05C48.9058 70.1251 48.857 70.1928 48.7965 70.2491C48.7359 70.3054 48.6649 70.3492 48.5874 70.378L42.6906 72.5761C42.6204 72.6025 42.546 72.6162 42.471 72.6165ZM51.5126 69.2456C51.365 69.2456 51.222 69.1938 51.1088 69.0992C50.9955 69.0045 50.9192 68.8731 50.893 68.7279C50.8668 68.5826 50.8925 68.4328 50.9656 68.3046C51.0388 68.1764 51.1546 68.0779 51.2929 68.0265L57.1895 65.8285C57.2669 65.7996 57.3493 65.7863 57.4319 65.7892C57.5145 65.7922 57.5957 65.8114 57.6709 65.8457C57.746 65.8801 57.8137 65.9289 57.87 65.9894C57.9263 66.0499 57.9701 66.1209 57.999 66.1983C58.0279 66.2758 58.0412 66.3581 58.0383 66.4407C58.0353 66.5233 58.0161 66.6045 57.9818 66.6796C57.9474 66.7548 57.8986 66.8225 57.8381 66.8787C57.7776 66.935 57.7066 66.9788 57.6292 67.0077L51.7324 69.2059C51.6621 69.2321 51.5876 69.2456 51.5126 69.2456Z"
          fill="#727FAA" fillOpacity="0.3"/>
</svg>
