<svg width="36" height="36" viewBox="0 0 36 36" fill="none" xmlns="http://www.w3.org/2000/svg">
    <path fill-rule="evenodd" clip-rule="evenodd" d="M9.03993 3C6.22091 3 4 5.2355 4 8.05179V11.7878V14.0468V27.9482C4 30.7645 6.22091 33 9.03993 33H27.9175C30.7365 33 32.9574 30.7645 32.9574 27.9482V15.0025V14.3944V13.0042C32.9574 10.7092 31.1695 8.9081 28.87 8.9081H28.5411V3H9.03993ZM29.9783 14.3944V13.0042C29.9783 12.3451 29.5147 11.8872 28.87 11.8872H19.9683V16.1195H28.87C29.5147 16.1195 29.9783 15.6616 29.9783 15.0025V14.3944ZM29.9783 18.9526C29.6273 19.0479 29.2558 19.0986 28.87 19.0986H9.03993C8.30236 19.0986 7.60573 18.9455 6.97912 18.6691V27.9482C6.97912 29.1286 7.8756 30.0209 9.03993 30.0209H27.9175C29.0818 30.0209 29.9783 29.1286 29.9783 27.9482V18.9526ZM6.97912 14.0468C6.97912 15.2271 7.8756 16.1195 9.03993 16.1195H16.9892V8.9081H25.5619V5.97912H9.03993C7.8756 5.97912 6.97912 6.87144 6.97912 8.05179V11.7878V14.0468Z" fill="white"/>
    <path d="M20.5046 12.1513H16.5325V16.1234H20.5046V12.1513Z" fill="url(#paint0_linear_919_512)"/>
    <path d="M28.87 5.43833H24.5403V8.91368H28.87V5.43833Z" fill="url(#paint1_linear_919_512)"/>
    <defs>
        <linearGradient id="paint0_linear_919_512" x1="18.5185" y1="18.7715" x2="18.5185" y2="13.4754" gradientUnits="userSpaceOnUse">
            <stop/>
            <stop offset="1" stop-opacity="0"/>
        </linearGradient>
        <linearGradient id="paint1_linear_919_512" x1="26.7052" y1="11.2306" x2="26.7052" y2="6.59678" gradientUnits="userSpaceOnUse">
            <stop/>
            <stop offset="1" stop-opacity="0"/>
        </linearGradient>
    </defs>
</svg>