<svg width="39" height="28" viewBox="0 0 39 28" fill="none" xmlns="http://www.w3.org/2000/svg">
    <path fill-rule="evenodd" clip-rule="evenodd" d="M18 9.52737V10.6165L10.2475 10.6217V9.02045C10.2475 6.72511 10.1011 4.62734 8.9958 4.62734C7.89044 4.62734 7.74575 6.72861 7.74575 9.02045V18.8764C7.74575 21.2312 8.057 23.3797 9.48201 23.3797C10.9069 23.3797 11.2199 21.226 11.2199 18.8764V17.9045H9.26161V13.2824H17.9915V27.6172H12.9645L12.3993 25.5317C11.6993 26.7344 10.0792 28 7.55565 28C2.05085 28 0 22.8849 0 17.845V10.1533C0 2.66067 4.27665 0 9.00082 0C13.725 0 18 2.03484 18 9.52737Z" fill="white"/>
    <path d="M37.9875 8.82778H30.5518V6.81477C30.5518 5.16874 29.8806 4.6288 29.1735 4.6288C28.4655 4.6288 27.7944 5.16874 27.7944 6.81477C27.7944 9.24497 29.7511 10.1191 31.9947 11.1213L31.9951 11.1214L31.996 11.1218C35.0109 12.4688 38.5448 14.0478 38.5448 19.9463C38.5448 25.1133 34.6737 28 29.486 28C24.0585 28 20.428 25.5694 20.428 20.0057V18.9171H27.9519V21.1886C27.9519 22.8347 28.6017 23.3747 29.3815 23.3747C30.1606 23.3747 30.8103 22.8347 30.8103 21.1886C30.8103 18.3655 28.6804 17.2313 26.3434 15.9869L26.3426 15.9864C23.5032 14.4744 20.3578 12.7994 20.3578 7.73388C20.3578 2.81502 24.1424 0 29.1735 0C34.44 0 37.9875 2.35896 37.9875 7.67448V8.82778Z" fill="#EE2A28"/>
</svg>
