<svg width="36" height="36" viewBox="0 0 36 36" fill="none" xmlns="http://www.w3.org/2000/svg">
    <circle cx="18" cy="18" r="18" fill="#15162B"/>
    <path fill-rule="evenodd" clip-rule="evenodd" d="M11.4809 8C9.53392 8 8 9.54399 8 11.4891V14.0695V15.6297V25.231C8 27.1761 9.53392 28.7201 11.4809 28.7201H24.5191C26.4661 28.7201 28 27.1761 28 25.231V16.2898V15.8697V14.9096C28 13.3245 26.7652 12.0805 25.177 12.0805H24.9498V8H11.4809ZM25.9424 15.8697V14.9096C25.9424 14.4544 25.6223 14.1381 25.177 14.1381H19.0288V17.0612H25.177C25.6223 17.0612 25.9424 16.745 25.9424 16.2898V15.8697ZM25.9424 19.018C25.7 19.0838 25.4435 19.1188 25.177 19.1188H11.4809C10.9715 19.1188 10.4904 19.0131 10.0576 18.8222V25.231C10.0576 26.0462 10.6768 26.6625 11.4809 26.6625H24.5191C25.3232 26.6625 25.9424 26.0462 25.9424 25.231V19.018ZM10.0576 15.6297C10.0576 16.4449 10.6768 17.0612 11.4809 17.0612H16.9712V12.0805H22.8922V10.0576H11.4809C10.6768 10.0576 10.0576 10.6739 10.0576 11.4891V14.0695V15.6297Z" fill="white"/>
    <path d="M19.3992 14.3205H16.6558V17.064H19.3992V14.3205Z" fill="url(#paint0_linear_919_512)"/>
    <path d="M25.1768 9.68407H22.1864V12.0844H25.1768V9.68407Z" fill="url(#paint1_linear_919_512)"/>
    <defs>
        <linearGradient id="paint0_linear_919_512" x1="18.0275" y1="18.8929" x2="18.0275" y2="15.235" gradientUnits="userSpaceOnUse">
            <stop/>
            <stop offset="1" stop-opacity="0"/>
        </linearGradient>
        <linearGradient id="paint1_linear_919_512" x1="23.6816" y1="13.6846" x2="23.6816" y2="10.4842" gradientUnits="userSpaceOnUse">
            <stop/>
            <stop offset="1" stop-opacity="0"/>
        </linearGradient>
    </defs>
</svg>
