<svg width="36" height="36" viewBox="0 0 36 36" fill="none" xmlns="http://www.w3.org/2000/svg">
<path fill-rule="evenodd" clip-rule="evenodd" d="M16.8776 14.404V15.3647L10.0392 15.3693V13.9568C10.0392 11.9322 9.91006 10.0817 8.9351 10.0817C7.96007 10.0817 7.83245 11.9352 7.83245 13.9568V22.6507C7.83245 24.7278 8.10699 26.623 9.36398 26.623C10.6209 26.623 10.897 24.7232 10.897 22.6507V21.7933H9.16957V17.7163H16.8701V30.3608H12.4359L11.9373 28.5212C11.3199 29.5821 9.8908 30.6985 7.66476 30.6985C2.80903 30.6985 1 26.1865 1 21.7409V14.9561C1 8.34695 4.77239 6 8.93953 6C13.1067 6 16.8776 7.79491 16.8776 14.404Z" fill="white"/>
<path d="M34.5084 13.7869H27.9494V12.0112C27.9494 10.5593 27.3574 10.083 26.7336 10.083C26.1091 10.083 25.5171 10.5593 25.5171 12.0112C25.5171 14.1549 27.2432 14.9259 29.2222 15.8099L29.2225 15.8101L29.2233 15.8105C31.8827 16.9986 35 18.3914 35 23.5944C35 28.1522 31.5853 30.6985 27.0093 30.6985C22.2218 30.6985 19.0193 28.5545 19.0193 23.6469V22.6866H25.6561V24.6903C25.6561 26.1422 26.2292 26.6186 26.9171 26.6186C27.6043 26.6186 28.1774 26.1422 28.1774 24.6903C28.1774 22.2 26.2987 21.1996 24.2372 20.1018L24.2365 20.1015C21.7319 18.7677 18.9574 17.2902 18.9574 12.822C18.9574 8.4831 22.2958 6 26.7336 6C31.3792 6 34.5084 8.08081 34.5084 12.7696V13.7869Z" fill="#EE2A28"/>
</svg>
