<svg width="24" height="24" viewBox="0 0 24 24" fill="none" xmlns="http://www.w3.org/2000/svg">
    <path d="M20.1542 14.2951V15.3639C20.1383 15.4159 20.1188 15.4678 20.1082 15.521C19.9989 16.0859 19.9374 16.6655 19.7726 17.2137C19.284 18.8313 18.3683 20.1794 17.0845 21.2801C16.0944 22.1297 14.9801 22.7418 13.7063 23.0431C13.2875 23.1423 12.858 23.2008 12.4332 23.2783H11.365C11.313 23.2622 11.2598 23.2379 11.2067 23.2344C10.0788 23.1642 9.01005 22.8706 8.00751 22.3582C6.11223 21.3929 4.74513 19.9555 4.12074 17.8877C3.98775 17.4458 3.93231 16.9826 3.84009 16.529V15.5092C3.88029 15.2586 3.91509 15.0059 3.96243 14.7554C4.16445 13.6613 4.65069 12.6923 5.29461 11.7979C5.90199 10.956 6.54711 10.1407 7.12311 9.2775C7.74582 8.34117 8.04711 7.30185 7.87053 6.1623C7.83573 5.93718 7.80315 5.71209 7.76892 5.48814C7.7919 5.48226 7.81497 5.47758 7.83807 5.47101C9.22815 6.9279 9.45444 8.71629 9.2559 10.6488C9.30678 10.5945 9.34932 10.5566 9.38178 10.5129C10.5616 8.91717 11.0684 7.15431 10.6838 5.17977C10.4394 3.92376 9.91053 2.79465 9.03561 1.85598C8.65566 1.44951 8.19603 1.11693 7.7724 0.75H8.20962C8.24562 0.76476 8.27937 0.7902 8.31591 0.79371C9.08514 0.8598 9.80772 1.09734 10.4961 1.43121C12.0704 2.1933 13.3465 3.31992 14.4141 4.69419C15.9833 6.71637 17.0036 8.95968 17.2057 11.5426C17.2831 12.5286 17.1826 13.4869 16.9197 14.4322C16.8205 14.7902 16.6804 15.1364 16.5522 15.5092C17.0614 15.2924 17.4485 14.961 17.7474 14.5315C18.639 13.2477 18.8882 11.8161 18.6862 10.2335C18.7519 10.3097 18.7855 10.3398 18.8084 10.3775C19.3455 11.2259 19.7472 12.131 19.957 13.1147C20.0403 13.504 20.0887 13.9023 20.1542 14.2951ZM11.7555 12.4129C11.7355 12.4271 11.7135 12.4418 11.6929 12.456C11.6651 12.846 11.6444 13.2365 11.6067 13.6264C11.5511 14.2213 11.4087 14.795 11.1304 15.3285C10.7901 15.9819 10.2213 16.3883 9.59079 16.7116C8.91087 17.0624 8.48256 17.5635 8.427 18.3545C8.36913 19.1681 8.61369 19.8515 9.26946 20.3514C9.88389 20.8193 10.6017 20.9718 11.3626 20.9464C12.5773 20.9068 13.4824 20.3295 13.8452 19.1137C14.1057 18.2411 14.0632 17.3626 13.8889 16.4841C13.6508 15.28 13.2147 14.1576 12.4686 13.1739C12.2589 12.8991 11.9942 12.6657 11.7555 12.4129Z"
          fill="url(#paint0_linear_6710_453)"/>
    <defs>
        <linearGradient id="paint0_linear_6710_453" x1="11.9732" y1="0.75" x2="11.9732" y2="23.357"
                        gradientUnits="userSpaceOnUse">
            <stop stop-color="#EE1717"/>
            <stop offset="1" stop-color="#F99306"/>
        </linearGradient>
    </defs>
</svg>
