<svg width="36" height="36" viewBox="0 0 36 36" fill="none" xmlns="http://www.w3.org/2000/svg">
    <path d="M2 26.9029L17.5316 35.8706L33.0632 26.9029V8.96764L17.5316 0L2 8.96764V26.9029V26.9029Z" fill="#469EA2"/>
    <path d="M15.9414 2.14484L4.66253 8.65331C4.68101 8.85628 4.68101 9.06051 4.66253 9.26348L15.9229 15.772C16.3859 15.4296 16.9465 15.2449 17.5223 15.2449C18.0981 15.2449 18.6587 15.4296 19.1217 15.772L30.3821 9.26348C30.3636 9.06051 30.3636 8.85628 30.3821 8.65331L19.1402 2.14484C18.6772 2.48715 18.1166 2.67188 17.5408 2.67188C16.965 2.67188 16.4044 2.48715 15.9414 2.14484V2.14484ZM31.473 11.057L20.1941 17.6394C20.2552 18.2103 20.1344 18.786 19.8488 19.2841C19.5632 19.7822 19.1275 20.1773 18.604 20.4129L18.6225 33.3559C18.8048 33.4364 18.9783 33.5355 19.1402 33.6518L30.4006 27.1433C30.3395 26.5724 30.4603 25.9968 30.7459 25.4987C31.0315 25.0006 31.4672 24.6055 31.9907 24.3698V11.3528C31.8105 11.2683 31.6373 11.1694 31.473 11.057V11.057ZM3.59011 11.131C3.42824 11.2472 3.25474 11.3464 3.07239 11.4268V24.4438C3.60235 24.6711 4.04404 25.0646 4.33086 25.5648C4.61768 26.0651 4.73409 26.645 4.66253 27.2173L15.9229 33.7257C16.0848 33.6095 16.2583 33.5103 16.4406 33.4299V20.4129C15.9107 20.1856 15.469 19.7921 15.1822 19.2919C14.8954 18.7916 14.7789 18.2116 14.8505 17.6394L3.59011 11.131V11.131Z" fill="#6ACAD1"/>
    <path d="M17.5316 1.94145L31.4176 9.9661V25.9969L17.5316 34.0216L3.64561 25.9969V9.94761L17.5316 1.94145ZM17.5316 0.0369797L2 9.00462V26.9399L17.5316 35.9075L33.0632 26.9399V9.00462L17.5316 0.0369797V0.0369797Z" fill="#469EA2"/>
    <path d="M17.6425 20.9861H17.4206C17.0392 20.9871 16.6612 20.9127 16.3086 20.7671C15.956 20.6216 15.6355 20.4078 15.3658 20.1381C15.096 19.8683 14.8822 19.5479 14.7367 19.1953C14.5912 18.8426 14.5167 18.4647 14.5177 18.0832V17.8613C14.5167 17.4798 14.5912 17.1019 14.7367 16.7493C14.8822 16.3966 15.096 16.0762 15.3658 15.8065C15.6355 15.5367 15.956 15.3229 16.3086 15.1774C16.6612 15.0318 17.0392 14.9574 17.4206 14.9584H17.6425C18.024 14.9574 18.4019 15.0318 18.7546 15.1774C19.1072 15.3229 19.4276 15.5367 19.6974 15.8065C19.9671 16.0762 20.1809 16.3966 20.3265 16.7493C20.472 17.1019 20.5464 17.4798 20.5455 17.8613V18.0832C20.5464 18.4647 20.472 18.8426 20.3265 19.1953C20.1809 19.5479 19.9671 19.8683 19.6974 20.1381C19.4276 20.4078 19.1072 20.6216 18.7546 20.7671C18.4019 20.9127 18.024 20.9871 17.6425 20.9861V20.9861ZM17.6425 32.9122H17.4206C16.9049 32.9106 16.3981 33.0469 15.9528 33.307C15.5074 33.5671 15.1396 33.9414 14.8875 34.3914L17.5316 35.9075L20.1757 34.3914C19.9236 33.9414 19.5558 33.5671 19.1104 33.307C18.665 33.0469 18.1583 32.9106 17.6425 32.9122V32.9122ZM33.0817 23.9445H32.9707C32.5892 23.9436 32.2113 24.018 31.8587 24.1635C31.506 24.3091 31.1856 24.5228 30.9159 24.7926C30.6461 25.0624 30.4323 25.3828 30.2868 25.7354C30.1412 26.088 30.0668 26.466 30.0678 26.8475V27.0693C30.0651 27.5621 30.1927 28.0469 30.4376 28.4746L33.0817 26.9399V23.9445V23.9445ZM30.4376 7.48844C30.1949 7.91699 30.0675 8.40117 30.0678 8.89368V9.11556C30.0668 9.49705 30.1412 9.87498 30.2868 10.2276C30.4323 10.5803 30.6461 10.9007 30.9159 11.1704C31.1856 11.4402 31.506 11.654 31.8587 11.7995C32.2113 11.945 32.5892 12.0195 32.9707 12.0185H33.0817V9.00462L30.4376 7.48844ZM17.5316 0.0369797L14.8875 1.55316C15.1384 2.0055 15.5054 2.38275 15.9507 2.64601C16.396 2.90927 16.9034 3.04902 17.4206 3.05085H17.6425C18.1583 3.0524 18.665 2.91609 19.1104 2.65602C19.5558 2.39595 19.9236 2.02157 20.1757 1.57165L17.5316 0.0369797V0.0369797ZM4.64407 7.46995L2 9.00462V12.0185H2.11094C2.49243 12.0195 2.87036 11.945 3.223 11.7995C3.57564 11.654 3.89604 11.4402 4.1658 11.1704C4.43555 10.9007 4.64934 10.5803 4.79488 10.2276C4.94042 9.87498 5.01484 9.49705 5.01387 9.11556V8.89368C5.0076 8.39618 4.8807 7.90762 4.64407 7.46995V7.46995ZM2.11094 23.9445H2V26.9399L4.64407 28.4746C4.88679 28.046 5.0142 27.5618 5.01387 27.0693V26.8475C5.01484 26.466 4.94042 26.088 4.79488 25.7354C4.64934 25.3828 4.43555 25.0624 4.1658 24.7926C3.89604 24.5228 3.57564 24.3091 3.223 24.1635C2.87036 24.018 2.49243 23.9436 2.11094 23.9445V23.9445Z" fill="#469EA2"/>
    <path d="M17.5316 36V18.0462L2 9.07858V27.0324L17.5316 36Z" fill="#083B54" fill-opacity="0.15"/>
    <path d="M33.0816 26.8659V8.93066L17.55 17.8983V35.8521L33.0816 26.8659Z" fill="#083B54" fill-opacity="0.05"/>
    <path d="M5.45764 13.4388H7.01191V22.6072H5.45764V13.4388ZM8.56618 13.4388H11.7358C12.4257 13.4388 13.002 13.5174 13.4473 13.6658C13.8926 13.8143 14.2506 14.0238 14.5038 14.2858C14.7551 14.5334 14.9411 14.8394 15.0452 15.1764C15.1505 15.5187 15.2035 15.8749 15.2024 16.233C15.2041 16.614 15.1511 16.9934 15.0452 17.3594C14.942 17.7122 14.7564 18.0354 14.5038 18.3024C14.2062 18.5945 13.8444 18.8128 13.4473 18.9399C13.002 19.097 12.4431 19.1756 11.762 19.1756H10.0943V22.6072H8.56618V13.4388ZM11.7271 17.892C12.054 17.9017 12.3805 17.8635 12.6963 17.7785C12.9173 17.7201 13.121 17.6093 13.2901 17.4555C13.4339 17.3157 13.5391 17.1413 13.5957 16.949C13.6533 16.7325 13.6827 16.5094 13.683 16.2854C13.6882 16.0581 13.6587 15.8314 13.5957 15.613C13.5377 15.4268 13.4288 15.2605 13.2814 15.1328C13.1056 14.9895 12.8996 14.888 12.6789 14.8359C12.3676 14.7591 12.0476 14.7239 11.7271 14.7311H10.1117V17.892H11.7271V17.892ZM22.1966 13.4388V14.7748H17.9005V17.3681H21.9434V18.7128H17.9005V22.6072H16.3463V13.4388H22.1966ZM24.4843 19.8043C24.5542 20.4068 24.7725 20.8434 25.1305 21.1141C25.4885 21.3848 26.0386 21.5245 26.7546 21.5245C27.0527 21.5331 27.3503 21.4948 27.6365 21.411C27.8457 21.3452 28.0411 21.2416 28.2128 21.1054C28.3531 20.9838 28.4586 20.8271 28.5185 20.6513C28.5792 20.4714 28.6087 20.2824 28.6058 20.0925C28.6075 19.9476 28.5869 19.8032 28.5447 19.6646C28.4965 19.5196 28.4192 19.3859 28.3176 19.2717C28.1904 19.1397 28.0393 19.033 27.8723 18.9573C27.6431 18.8585 27.4026 18.7881 27.1563 18.7478L25.9862 18.5295C25.5678 18.4553 25.156 18.3473 24.755 18.2064C24.4245 18.0931 24.117 17.9216 23.8469 17.6999C23.6032 17.4929 23.4142 17.229 23.2968 16.9315C23.1658 16.5769 23.1036 16.2005 23.1134 15.8226C23.0996 15.4398 23.1827 15.0597 23.3553 14.7177C23.5278 14.3757 23.784 14.083 24.1001 13.8667C24.4323 13.635 24.8058 13.469 25.2004 13.3777C25.6522 13.2698 26.1155 13.217 26.58 13.2205C27.2087 13.2205 27.7413 13.2904 28.1692 13.4388C28.5497 13.5573 28.9029 13.7502 29.2083 14.0064C29.4631 14.2325 29.6683 14.509 29.8108 14.8184C29.9472 15.1244 30.0413 15.4475 30.0902 15.7789L28.6232 16.006C28.501 15.4908 28.3002 15.1153 28.0033 14.8621C27.7064 14.6089 27.2436 14.4866 26.5975 14.4866C26.2891 14.4816 25.9813 14.5139 25.6806 14.5827C25.4671 14.6337 25.2654 14.7256 25.0868 14.8534C24.9464 14.9572 24.8351 15.0956 24.7638 15.255C24.701 15.4043 24.6684 15.5646 24.6677 15.7265C24.6677 16.1282 24.7725 16.4251 24.9908 16.6259C25.2091 16.8268 25.5933 16.9752 26.1434 17.0887L27.4095 17.3332C28.3788 17.5166 29.086 17.8222 29.5401 18.25C29.9941 18.6779 30.2212 19.3066 30.2212 20.1187C30.2243 20.4871 30.153 20.8524 30.0116 21.1927C29.8699 21.5267 29.6479 21.8206 29.3655 22.0484C29.0452 22.3087 28.6775 22.5044 28.2827 22.6247C27.7932 22.7731 27.2835 22.8439 26.7721 22.8343C25.602 22.8343 24.6764 22.5898 24.0128 22.0921C23.3492 21.5944 22.9737 20.8347 22.9126 19.8043H24.4843V19.8043Z" fill="white"/>
</svg>
