<svg width="30" height="30" viewBox="0 0 30 30" fill="none" xmlns="http://www.w3.org/2000/svg">
<path d="M24.4918 0H11.0686V17.9561H29.0836L29.0836 4.6718C29.0909 2.14947 27.0224 0 24.4918 0ZM6.94632 0H4.69445C2.16385 0 0 2.05442 0 4.67911V6.92362H6.94632V0ZM0 11.1275H6.94632V18.0511H0V11.1275ZM22.1446 29.0836H24.3965C26.9271 29.0836 29.0909 27.0292 29.0909 24.4045V22.1673H22.1446V29.0836ZM11.0686 22.1673H18.0149V29.0909H11.0686V22.1673ZM0 22.1673V24.4118C0 26.9341 2.06116 29.0909 4.69445 29.0909H6.94632V22.1673H0Z" fill="#002747"/>
</svg>
