<svg width="105" height="41" viewBox="0 0 105 41" fill="#3B5AF4" xmlns="http://www.w3.org/2000/svg">
    <path d="M41.2461 19.9875H27.2495L30.2249 24.702L19.3922 33.3382L41.2461 20.071V19.9875ZM19.0988 33.5259V7.20007L8.03564 24.7228L19.0988 33.5259ZM43.2363 33.4426V20.0293H45.4154V31.6069H48.3908V33.4426H43.2363ZM96.6455 22.5743V24.7855H94.5293V22.5534C94.5921 21.5313 92.5387 21.4896 92.6854 22.5534V30.835C92.6854 31.3565 92.9578 31.6277 93.5654 31.6277C94.1311 31.6277 94.5293 31.3565 94.5293 30.835V28.5612H93.6073V26.7255H96.6455V30.8559C96.6455 32.483 95.556 33.5469 93.5654 33.5469C91.5749 33.5469 90.4853 32.4621 90.4853 30.8559V22.5743C90.4853 20.968 91.5749 19.8833 93.5654 19.8833C95.556 19.8833 96.6455 20.9472 96.6455 22.5743ZM87.1119 27.3513C87.07 26.1206 87.049 24.9941 87.049 23.9511H87.0281V20.0085H89.0186V33.4426H86.7138L84.6604 25.9537C84.7023 27.2053 84.7233 28.3944 84.7233 29.4791V33.4426H82.7327V20.0085H85.1004L87.1119 27.3513ZM81.1403 33.4217H78.9612V19.9876H81.1403V33.4217ZM74.582 26.4543C75.1058 26.4543 75.3782 26.1832 75.3782 25.6616V22.6369C75.3782 22.1154 75.1058 21.8442 74.582 21.8442H73.5972V26.4543H74.582ZM77.5573 22.6369V25.6616C77.5573 26.6838 77.1383 27.4765 76.3421 27.9146L77.8297 33.4426H75.6506L74.2677 28.3109H73.5972V33.4426H71.4181V20.0085H74.582C76.5306 20.0085 77.5573 21.0098 77.5573 22.6369ZM67.3532 26.4543C67.8771 26.4543 68.1494 26.1832 68.1494 25.6616H68.1704V22.6369C68.1704 22.1154 67.898 21.8442 67.3742 21.8442H66.3894V26.4543H67.3532ZM64.2103 20.0085H67.3742C69.3228 20.0085 70.3285 20.9889 70.3495 22.6577V25.6825C70.3495 27.3096 69.3228 28.3109 67.3742 28.3109H66.3894V33.4426H64.2103V20.0085ZM58.7834 30.8559C58.6577 31.8989 60.7111 31.8989 60.5854 30.8559V22.5743C60.6902 21.5313 58.6577 21.5313 58.7834 22.5743V30.8559ZM56.6043 22.5743C56.6043 20.9472 57.6939 19.8833 59.6844 19.8833C61.654 19.8833 62.7645 20.9472 62.7645 22.5743V30.8559C62.7645 32.483 61.675 33.5469 59.6844 33.5469C57.6939 33.5469 56.6043 32.4621 56.6043 30.8559V22.5743ZM51.3242 30.8559C51.1985 31.8989 53.2519 31.8989 53.1261 30.8559V22.5743C53.2309 21.5313 51.1985 21.5313 51.3242 22.5743V30.8559ZM49.1451 22.5743C49.1451 20.9472 50.2346 19.8833 52.2252 19.8833C54.2157 19.8833 55.3053 20.9472 55.3053 22.5743V30.8559C55.3053 32.483 54.2157 33.5469 52.2252 33.5469C50.2346 33.5469 49.1451 32.4621 49.1451 30.8559V22.5743Z"
          fill="#3B5AF4"/>
    <path d="M41.2461 19.9875H27.2495L30.2249 24.702L19.3922 33.3382L41.2461 20.071V19.9875ZM19.0988 33.5259V7.20007L8.03564 24.7228L19.0988 33.5259ZM43.2363 33.4426V20.0293H45.4154V31.6069H48.3908V33.4426H43.2363ZM96.6455 22.5743V24.7855H94.5293V22.5534C94.5921 21.5313 92.5387 21.4896 92.6854 22.5534V30.835C92.6854 31.3565 92.9578 31.6277 93.5654 31.6277C94.1311 31.6277 94.5293 31.3565 94.5293 30.835V28.5612H93.6073V26.7255H96.6455V30.8559C96.6455 32.483 95.556 33.5469 93.5654 33.5469C91.5749 33.5469 90.4853 32.4621 90.4853 30.8559V22.5743C90.4853 20.968 91.5749 19.8833 93.5654 19.8833C95.556 19.8833 96.6455 20.9472 96.6455 22.5743ZM87.1119 27.3513C87.07 26.1206 87.049 24.9941 87.049 23.9511H87.0281V20.0085H89.0186V33.4426H86.7138L84.6604 25.9537C84.7023 27.2053 84.7233 28.3944 84.7233 29.4791V33.4426H82.7327V20.0085H85.1004L87.1119 27.3513ZM81.1403 33.4217H78.9612V19.9876H81.1403V33.4217ZM74.582 26.4543C75.1058 26.4543 75.3782 26.1832 75.3782 25.6616V22.6369C75.3782 22.1154 75.1058 21.8442 74.582 21.8442H73.5972V26.4543H74.582ZM77.5573 22.6369V25.6616C77.5573 26.6838 77.1383 27.4765 76.3421 27.9146L77.8297 33.4426H75.6506L74.2677 28.3109H73.5972V33.4426H71.4181V20.0085H74.582C76.5306 20.0085 77.5573 21.0098 77.5573 22.6369ZM67.3532 26.4543C67.8771 26.4543 68.1494 26.1832 68.1494 25.6616H68.1704V22.6369C68.1704 22.1154 67.898 21.8442 67.3742 21.8442H66.3894V26.4543H67.3532ZM64.2103 20.0085H67.3742C69.3228 20.0085 70.3285 20.9889 70.3495 22.6577V25.6825C70.3495 27.3096 69.3228 28.3109 67.3742 28.3109H66.3894V33.4426H64.2103V20.0085ZM58.7834 30.8559C58.6577 31.8989 60.7111 31.8989 60.5854 30.8559V22.5743C60.6902 21.5313 58.6577 21.5313 58.7834 22.5743V30.8559ZM56.6043 22.5743C56.6043 20.9472 57.6939 19.8833 59.6844 19.8833C61.654 19.8833 62.7645 20.9472 62.7645 22.5743V30.8559C62.7645 32.483 61.675 33.5469 59.6844 33.5469C57.6939 33.5469 56.6043 32.4621 56.6043 30.8559V22.5743ZM51.3242 30.8559C51.1985 31.8989 53.2519 31.8989 53.1261 30.8559V22.5743C53.2309 21.5313 51.1985 21.5313 51.3242 22.5743V30.8559ZM49.1451 22.5743C49.1451 20.9472 50.2346 19.8833 52.2252 19.8833C54.2157 19.8833 55.3053 20.9472 55.3053 22.5743V30.8559C55.3053 32.483 54.2157 33.5469 52.2252 33.5469C50.2346 33.5469 49.1451 32.4621 49.1451 30.8559V22.5743Z"
          fill="url(#paint0_linear)"/>
    <defs>
        <linearGradient id="paint0_linear" x1="52.3406" y1="7.20007" x2="52.3406" y2="33.5469"
                        gradientUnits="userSpaceOnUse">
            <stop stop-color="#3B5AF4"/>
            <stop offset="1" stop-color="#3B5AF4" stop-opacity="0"/>
        </linearGradient>
    </defs>
</svg>
