<svg width="36" height="36" viewBox="0 0 36 36" fill="none" xmlns="http://www.w3.org/2000/svg">
    <path d="M11.5828 29.2405L15.5132 30.2842V28.9193L15.8341 28.5981H18.0801V30.204V31.328H15.6737L12.7058 30.0434L11.5828 29.2405Z" fill="#CDBDB2"/>
    <path d="M24.4171 29.2405L20.5668 30.2842V28.9193L20.246 28.5981H18V30.204V31.328H20.4064L23.3743 30.0434L24.4171 29.2405Z" fill="#CDBDB2"/>
    <path d="M15.8342 26.2699L15.5133 28.9194L15.9144 28.5983H20.0855L20.5668 28.9194L20.2459 26.2699L19.6042 25.8684L16.3957 25.9487L15.8342 26.2699Z" fill="#393939"/>
    <path d="M13.6685 8.36523L15.5936 12.8615L16.4759 25.9487H19.6043L20.5668 12.8615L22.3315 8.36523H13.6685Z" fill="#F89C35"/>
    <path d="M5.24599 18.2407L3 24.7442L8.61497 24.423H12.2246V21.6129L12.0642 15.832L11.262 16.4743L5.24599 18.2407Z" fill="#F89D35"/>
    <path d="M9.49731 18.9634L16.0748 19.124L15.3529 22.4961L12.2246 21.6932L9.49731 18.9634Z" fill="#D87C30"/>
    <path d="M9.49731 19.0437L12.2246 21.613V24.1822L9.49731 19.0437Z" fill="#EA8D3A"/>
    <path d="M12.2246 21.6934L15.4332 22.4963L16.4759 25.9487L15.754 26.3502L12.2246 24.2626V21.6934Z" fill="#F89D35"/>
    <path d="M12.2245 24.2625L11.5828 29.2404L15.8341 26.2697L12.2245 24.2625Z" fill="#EB8F35"/>
    <path d="M16.0748 19.124L16.4759 25.9486L15.2727 22.456L16.0748 19.124Z" fill="#EA8E3A"/>
    <path d="M8.53479 24.3427L12.2246 24.2625L11.5829 29.2404L8.53479 24.3427Z" fill="#D87C30"/>
    <path d="M4.7647 31.4083L11.5829 29.2404L8.53475 24.3428L3 24.7442L4.7647 31.4083Z" fill="#EB8F35"/>
    <path d="M15.5936 12.8613L12.1444 15.7518L9.49731 18.9633L16.0748 19.2042L15.5936 12.8613Z" fill="#E8821E"/>
    <path d="M11.5828 29.2405L15.8341 26.2698L15.5132 28.839V30.2842L12.6255 29.7222L11.5828 29.2405Z" fill="#DFCEC3"/>
    <path d="M24.4171 29.2405L20.246 26.2698L20.5668 28.839V30.2842L23.4545 29.7222L24.4171 29.2405Z" fill="#DFCEC3"/>
    <path d="M14.31 20.5691L15.1924 22.4158L12.064 21.6129L14.31 20.5691Z" fill="#393939"/>
    <path d="M4.68445 4.59155L15.5935 12.8614L13.7486 8.36517L4.68445 4.59155Z" fill="#E88F35"/>
    <path d="M4.68445 4.59155L3.2406 9.00748L4.04274 13.8249L3.48124 14.146L4.28338 14.8686L3.64167 15.4307L4.52402 16.2336L3.96252 16.7153L5.24594 18.3211L11.262 16.4744C14.2031 14.1193 15.647 12.9149 15.5935 12.8614C15.54 12.8079 11.9037 10.0513 4.68445 4.59155Z" fill="#8E5A30"/>
    <path d="M30.754 18.2407L33 24.7442L27.385 24.423H23.7754V21.6129L23.9358 15.832L24.738 16.4743L30.754 18.2407Z" fill="#F89D35"/>
    <path d="M26.5026 18.9634L19.925 19.124L20.647 22.4961L23.7753 21.6932L26.5026 18.9634Z" fill="#D87C30"/>
    <path d="M26.5026 19.0437L23.7753 21.613V24.1822L26.5026 19.0437Z" fill="#EA8D3A"/>
    <path d="M23.7754 21.6934L20.5668 22.4963L19.5241 25.9487L20.246 26.3502L23.7754 24.2626V21.6934Z" fill="#F89D35"/>
    <path d="M23.7755 24.2625L24.4172 29.2404L20.2461 26.35L23.7755 24.2625Z" fill="#EB8F35"/>
    <path d="M19.9252 19.124L19.5241 25.9486L20.7273 22.456L19.9252 19.124Z" fill="#EA8E3A"/>
    <path d="M27.4652 24.3427L23.7753 24.2625L24.4171 29.2404L27.4652 24.3427Z" fill="#D87C30"/>
    <path d="M31.2353 31.4083L24.4171 29.2404L27.4652 24.3428L33 24.7442L31.2353 31.4083Z" fill="#EB8F35"/>
    <path d="M20.4063 12.8613L23.8555 15.7518L26.5026 18.9633L19.925 19.2042L20.4063 12.8613Z" fill="#E8821E"/>
    <path d="M21.6899 20.5691L20.8075 22.4158L23.9358 21.6129L21.6899 20.5691Z" fill="#393939"/>
    <path d="M31.3154 4.59155L20.4064 12.8614L22.2513 8.36517L31.3154 4.59155Z" fill="#E88F35"/>
    <path d="M31.3154 4.59155L32.7593 9.00748L31.9571 13.8249L32.5186 14.146L31.7165 14.8686L32.3582 15.4307L31.4759 16.2336L32.0374 16.7153L30.7539 18.3211L24.7379 16.4744C21.7967 14.1193 20.3529 12.9149 20.4064 12.8614C20.4599 12.8079 24.0962 10.0513 31.3154 4.59155Z" fill="#8E5A30"/>
</svg>
