<svg width="24" height="34" viewBox="0 0 24 34" fill="none" xmlns="http://www.w3.org/2000/svg">
<path d="M11.6284 0C7.00041 0 3.25503 3.77464 3.25503 8.43882V11.6016C1.62985 11.8981 0 12.2935 0 12.8065V29.3123C0 29.3123 5.96046e-08 29.7688 0.509036 29.9853C2.35371 30.7384 9.61097 33.327 11.2782 33.92C11.493 34 11.5537 34 11.6098 34C11.6891 34 11.7265 34 11.9413 33.92C13.6085 33.327 20.8845 30.7384 22.7292 29.9853C23.2008 29.7877 23.2195 29.3311 23.2195 29.3311V12.8065C23.2195 12.2935 21.613 11.8793 19.9832 11.6016V8.43882C20.0065 3.77464 16.2378 0 11.6284 0ZM11.6302 3.3203C14.6112 3.3203 16.4131 5.15167 16.4131 8.18148V11.2113C13.0696 10.9726 10.2162 10.9726 6.85238 11.2113V8.18148C6.85238 5.14648 8.65426 3.3203 11.6302 3.3203ZM11.6069 13.9364C16.3558 13.9364 20.3413 14.2955 20.3413 14.9397V27.4126C20.3413 27.6064 20.318 27.6292 20.1432 27.6976C19.9743 27.7718 12.0439 30.5708 12.0439 30.5708C12.0439 30.5708 11.7234 30.6677 11.6302 30.6677C11.5311 30.6677 11.2165 30.548 11.2165 30.548C11.2165 30.548 3.28614 27.749 3.11716 27.6748C2.94819 27.6007 2.91905 27.5779 2.91905 27.3898V14.9169C2.87244 14.2727 6.85801 13.9364 11.6069 13.9364Z" fill="#002747"/>
</svg>
