<svg width="36" height="36" viewBox="0 0 36 36" fill="none" xmlns="http://www.w3.org/2000/svg">
<path d="M9.14162 12.4186C14.034 7.64531 21.9661 7.64531 26.8584 12.4186L27.4472 12.993C27.6918 13.2317 27.6918 13.6187 27.4472 13.8573L25.433 15.8225C25.3107 15.9418 25.1124 15.9418 24.9901 15.8225L24.1798 15.0319C20.7668 11.702 15.2332 11.702 11.8202 15.0319L10.9525 15.8785C10.8301 15.9979 10.6318 15.9979 10.5095 15.8785L8.49536 13.9134C8.25074 13.6747 8.25074 13.2878 8.49536 13.0491L9.14162 12.4186ZM31.0239 16.4827L32.8165 18.2317C33.0612 18.4704 33.0612 18.8573 32.8165 19.096L24.7335 26.9824C24.4889 27.2211 24.0923 27.2211 23.8476 26.9824L18.1108 21.3852C18.0496 21.3255 17.9505 21.3255 17.8893 21.3852L12.1526 26.9824C11.908 27.2211 11.5114 27.2211 11.2667 26.9824L3.18346 19.0959C2.93885 18.8572 2.93885 18.4703 3.18346 18.2316L4.97609 16.4826C5.22071 16.2439 5.61731 16.2439 5.86193 16.4826L11.5989 22.0799C11.66 22.1396 11.7592 22.1396 11.8203 22.0799L17.557 16.4826C17.8016 16.2439 18.1982 16.2439 18.4428 16.4826L24.1798 22.0799C24.2409 22.1396 24.3401 22.1396 24.4012 22.0799L30.1381 16.4827C30.3827 16.244 30.7793 16.244 31.0239 16.4827Z" fill="#2280FC"/>
</svg>

