<svg width="24" height="24" viewBox="0 0 24 24" fill="none" xmlns="http://www.w3.org/2000/svg">
<path d="M11.38 2.01953C10.6431 2.70615 10.0521 3.53416 9.64219 4.45415C9.23227 5.37414 9.01185 6.36728 8.99408 7.37431C8.97632 8.38133 9.16156 9.38163 9.53877 10.3155C9.91598 11.2494 10.4774 12.0977 11.1896 12.8099C11.9018 13.5221 12.7501 14.0835 13.684 14.4608C14.6179 14.838 15.6182 15.0232 16.6252 15.0054C17.6323 14.9877 18.6254 14.7673 19.5454 14.3573C20.4654 13.9474 21.2934 13.3564 21.98 12.6195C21.662 17.8545 17.316 22.0005 12.001 22.0005C6.477 22.0005 2 17.5235 2 12.0005C2 6.68553 6.146 2.33953 11.38 2.01953Z" fill="#15162B"/>
</svg>
